<?xml version="1.0" encoding="UTF-8"?>
<svg version="1.1" xmlns="http://www.w3.org/2000/svg" width="500" height="500">
<path d="M0 0 C0.73816956 -0.00376648 1.47633911 -0.00753296 2.23687744 -0.01141357 C4.34051577 -0.01687726 6.44331761 -0.00612041 8.546875 0.01171875 C9.76729492 0.02033936 10.98771484 0.02895996 12.24511719 0.0378418 C15.25 0.3125 15.25 0.3125 18.25 2.3125 C17.60788574 2.35213867 16.96577148 2.39177734 16.30419922 2.43261719 C-31.43191154 5.50142772 -78.82356049 19.6448586 -117.75 48.3125 C-118.34796387 48.75255371 -118.94592773 49.19260742 -119.56201172 49.64599609 C-126.57188603 54.77552028 -126.57188603 54.77552028 -132.98828125 60.6015625 C-134.75 62.3125 -134.75 62.3125 -136.75 62.3125 C-136.75 62.9725 -136.75 63.6325 -136.75 64.3125 C-138.1484375 65.6171875 -138.1484375 65.6171875 -140.125 67.1875 C-155.70135433 80.47564653 -169.3536595 101.59825436 -171.62060547 122.25537109 C-172.41005846 134.80618406 -168.69541819 146.24338346 -161 156.125 C-145.67915939 172.52308722 -121.81035587 177.76001234 -100.28515625 178.63671875 C-75.737591 179.22574878 -52.15418528 175.5916453 -28.75 168.3125 C-27.97011719 168.07805176 -27.19023437 167.84360352 -26.38671875 167.60205078 C5.34445861 158.02728964 38.84521997 141.21824603 62.25 117.3125 C62.91 117.6425 63.57 117.9725 64.25 118.3125 C43.02563013 143.72195689 14.81014544 162.94911317 -15.125 176.75 C-15.72983215 177.02941437 -16.33466431 177.30882874 -16.95782471 177.59671021 C-64.47754712 199.47475619 -125.57658383 214.47719349 -176.75 196.3125 C-182.31281473 194.06198873 -187.55972018 191.31235905 -192.75 188.3125 C-194.16732422 187.51392578 -194.16732422 187.51392578 -195.61328125 186.69921875 C-207.37688208 179.3263865 -215.10608947 166.79598544 -218.33544922 153.49145508 C-222.19141619 133.22378418 -214.36673637 113.26682998 -203.15600586 96.65429688 C-197.68828745 88.9506311 -191.31728829 82.08096931 -184.75 75.3125 C-183.9353125 74.45785156 -183.120625 73.60320312 -182.28125 72.72265625 C-178.35062376 68.67097811 -178.35062376 68.67097811 -176.75 67.3125 C-176.09 67.3125 -175.43 67.3125 -174.75 67.3125 C-174.75 66.6525 -174.75 65.9925 -174.75 65.3125 C-172.89533792 63.62927727 -171.04031873 62.09148096 -169.0625 60.5625 C-168.44600586 60.08369385 -167.82951172 59.6048877 -167.19433594 59.11157227 C-129.81749476 30.56867734 -86.98221259 11.78102803 -40.75 3.3125 C-39.3280835 3.04783936 -39.3280835 3.04783936 -37.87744141 2.77783203 C-25.27281732 0.53122088 -12.77088337 0.03690708 0 0 Z " fill="#FFFFFF" transform="translate(302.75,176.6875)"/>
<path d="M0 0 C0.70825928 -0.00067474 1.41651855 -0.00134949 2.14624023 -0.00204468 C27.42229777 0.03609038 56.52291684 3.89935667 75.6875 22.25 C87.58035079 35.05103212 91.33576553 47.83144373 90.9921875 64.95703125 C90.69689334 71.84519461 89.24190979 77.84946184 86.6875 84.25 C86.4296875 84.90387695 86.171875 85.55775391 85.90625 86.23144531 C79.13720596 102.98953003 68.13214644 116.35144549 55.6875 129.25 C54.96304688 130.02601563 54.23859375 130.80203125 53.4921875 131.6015625 C16.32651518 170.41294724 -40.2146261 193.50691229 -92.3125 202.25 C-93.33899658 202.42789063 -93.33899658 202.42789063 -94.38623047 202.609375 C-110.81055816 205.32454061 -127.72652192 204.43565328 -144.3125 204.25 C-144.3125 203.59 -144.3125 202.93 -144.3125 202.25 C-143.68085938 202.21559814 -143.04921875 202.18119629 -142.3984375 202.14575195 C-86.00108767 198.86978918 -30.64365201 177.28883601 10.6875 138.25 C11.42355469 137.56679688 12.15960938 136.88359375 12.91796875 136.1796875 C29.52033905 120.2531659 43.45555123 99.66243935 44.125 76 C43.75710718 65.47351836 41.11501713 57.57905643 34.6875 49.25 C34.0790625 48.43015625 33.470625 47.6103125 32.84375 46.765625 C21.18094168 33.1590153 0.59235805 27.15922093 -16.67431641 25.44482422 C-77.47561509 20.95477829 -138.88677737 44.41168448 -184.96484375 83.5 C-186.76290558 85.06737903 -188.5483114 86.64469795 -190.3125 88.25 C-190.9725 87.92 -191.6325 87.59 -192.3125 87.25 C-190.06369447 84.83221947 -187.81324339 82.41597654 -185.5625 80 C-184.61117187 78.97712891 -184.61117187 78.97712891 -183.640625 77.93359375 C-181.87001656 76.03387844 -180.09266316 74.14075872 -178.3125 72.25 C-177.54421875 71.43015625 -176.7759375 70.6103125 -175.984375 69.765625 C-174.3125 68.25 -174.3125 68.25 -172.3125 68.25 C-172.3125 67.59 -172.3125 66.93 -172.3125 66.25 C-170.37213317 64.53411301 -168.42788228 62.94753143 -166.375 61.375 C-165.74601807 60.8895874 -165.11703613 60.4041748 -164.46899414 59.90405273 C-162.42597694 58.34018452 -160.37182298 56.79232402 -158.3125 55.25 C-157.32588379 54.50919189 -157.32588379 54.50919189 -156.31933594 53.75341797 C-112.08029748 20.83007644 -55.37782102 0.04748418 0 0 Z " fill="#FFFFFF" transform="translate(324.3125,119.75)"/>
<path d="" fill="#FFFFFF" transform="translate(0,0)"/>
</svg>
